<svg width="37" height="37" viewBox="0 0 37 37" fill="none" xmlns="http://www.w3.org/2000/svg">
<path opacity="0.1" fill-rule="evenodd" clip-rule="evenodd" d="M18.5 36C28.165 36 36 28.165 36 18.5C36 8.83502 28.165 1 18.5 1C8.83502 1 1 8.83502 1 18.5C1 28.165 8.83502 36 18.5 36Z" stroke="black" stroke-width="1.5"/>
<path d="M24 9.66666H21.5C20.3949 9.66666 19.3351 10.1056 18.5537 10.887C17.7723 11.6684 17.3333 12.7283 17.3333 13.8333V16.3333H14.8333V19.6667H17.3333V26.3333H20.6667V19.6667H23.1667L24 16.3333H20.6667V13.8333C20.6667 13.6123 20.7545 13.4003 20.9108 13.2441C21.067 13.0878 21.279 13 21.5 13H24V9.66666Z" fill="white"/>
</svg>
