<svg width="37" height="37" viewBox="0 0 37 37" fill="none" xmlns="http://www.w3.org/2000/svg">
<path opacity="0.1" fill-rule="evenodd" clip-rule="evenodd" d="M18.5 36C28.165 36 36 28.165 36 18.5C36 8.83502 28.165 1 18.5 1C8.83502 1 1 8.83502 1 18.5C1 28.165 8.83502 36 18.5 36Z" stroke="black" stroke-width="1.5"/>
<path d="M22.3333 14.6667C23.6594 14.6667 24.9312 15.1934 25.8689 16.1311C26.8066 17.0688 27.3333 18.3406 27.3333 19.6667V25.5H24V19.6667C24 19.2246 23.8244 18.8007 23.5119 18.4881C23.1993 18.1756 22.7754 18 22.3333 18C21.8913 18 21.4674 18.1756 21.1548 18.4881C20.8423 18.8007 20.6667 19.2246 20.6667 19.6667V25.5H17.3333V19.6667C17.3333 18.3406 17.8601 17.0688 18.7978 16.1311C19.7355 15.1934 21.0073 14.6667 22.3333 14.6667Z" fill="white"/>
<path d="M14 15.5H10.6667V25.5H14V15.5Z" fill="white"/>
<path d="M12.3333 13C13.2538 13 14 12.2538 14 11.3333C14 10.4128 13.2538 9.66666 12.3333 9.66666C11.4128 9.66666 10.6667 10.4128 10.6667 11.3333C10.6667 12.2538 11.4128 13 12.3333 13Z" fill="white"/>
</svg>
