<svg width="68" height="21" viewBox="0 0 68 21" fill="none" xmlns="http://www.w3.org/2000/svg">
<path d="M10.7112 5.416V4H13.8072V20.8H10.7112V14.584C9.79922 15.752 8.50322 16.336 6.82322 16.336C5.20722 16.336 3.82322 15.728 2.67122 14.512C1.53522 13.28 0.967219 11.776 0.967219 10C0.967219 8.24 1.53522 6.744 2.67122 5.512C3.82322 4.28 5.20722 3.664 6.82322 3.664C8.50322 3.664 9.79922 4.248 10.7112 5.416ZM4.99922 12.448C5.65522 13.072 6.45522 13.384 7.39922 13.384C8.35922 13.384 9.15122 13.072 9.77522 12.448C10.3992 11.808 10.7112 10.992 10.7112 10C10.7112 9.008 10.3992 8.2 9.77522 7.576C9.15122 6.936 8.35922 6.616 7.39922 6.616C6.43922 6.616 5.63922 6.936 4.99922 7.576C4.37522 8.2 4.06322 9.008 4.06322 10C4.06322 10.992 4.37522 11.808 4.99922 12.448ZM29.9107 3.664C31.2867 3.664 32.3827 4.112 33.1987 5.008C34.0307 5.904 34.4467 7.104 34.4467 8.608V16H31.3507V8.824C31.3507 8.104 31.1747 7.544 30.8227 7.144C30.4707 6.744 29.9747 6.544 29.3347 6.544C28.6307 6.544 28.0787 6.776 27.6787 7.24C27.2947 7.704 27.1027 8.376 27.1027 9.256V16H24.0067V8.824C24.0067 8.104 23.8307 7.544 23.4787 7.144C23.1267 6.744 22.6307 6.544 21.9907 6.544C21.3027 6.544 20.7507 6.784 20.3347 7.264C19.9347 7.728 19.7347 8.392 19.7347 9.256V16H16.6387V4H19.7347V5.272C20.4547 4.2 21.5667 3.664 23.0707 3.664C24.5587 3.664 25.6467 4.24 26.3347 5.392C27.1187 4.24 28.3107 3.664 29.9107 3.664ZM46.1962 5.416V4H49.2922V16H46.1962V14.584C45.2682 15.752 43.9642 16.336 42.2842 16.336C40.6842 16.336 39.3082 15.728 38.1562 14.512C37.0202 13.28 36.4522 11.776 36.4522 10C36.4522 8.24 37.0202 6.744 38.1562 5.512C39.3082 4.28 40.6842 3.664 42.2842 3.664C43.9642 3.664 45.2682 4.248 46.1962 5.416ZM40.4842 12.448C41.1082 13.072 41.9002 13.384 42.8602 13.384C43.8202 13.384 44.6122 13.072 45.2362 12.448C45.8762 11.808 46.1962 10.992 46.1962 10C46.1962 9.008 45.8762 8.2 45.2362 7.576C44.6122 6.936 43.8202 6.616 42.8602 6.616C41.9002 6.616 41.1082 6.936 40.4842 7.576C39.8602 8.2 39.5482 9.008 39.5482 10C39.5482 10.992 39.8602 11.808 40.4842 12.448ZM55.1956 4V6.064C55.4676 5.312 55.9316 4.744 56.5876 4.36C57.2436 3.96 57.9956 3.76 58.8436 3.76V7.216C57.8996 7.088 57.0516 7.28 56.2996 7.792C55.5636 8.288 55.1956 9.112 55.1956 10.264V16H52.0996V4H55.1956ZM67.8464 4V6.976H65.1344V11.968C65.1344 12.384 65.2384 12.688 65.4464 12.88C65.6544 13.072 65.9584 13.184 66.3584 13.216C66.7584 13.232 67.2544 13.224 67.8464 13.192V16C65.7504 16.24 64.2544 16.048 63.3584 15.424C62.4784 14.784 62.0384 13.632 62.0384 11.968V6.976H59.9504V4H62.0384V1.576L65.1344 0.639999V4H67.8464Z" fill="white"/>
</svg>
