<svg width="105" height="35" viewBox="0 0 105 35" fill="none" xmlns="http://www.w3.org/2000/svg">
<rect width="105" height="35" rx="15" fill="#FF8126" fill-opacity="0.08"/>
<path d="M28.7112 13.416V12H31.8072V28.8H28.7112V22.584C27.7992 23.752 26.5032 24.336 24.8232 24.336C23.2072 24.336 21.8232 23.728 20.6712 22.512C19.5352 21.28 18.9672 19.776 18.9672 18C18.9672 16.24 19.5352 14.744 20.6712 13.512C21.8232 12.28 23.2072 11.664 24.8232 11.664C26.5032 11.664 27.7992 12.248 28.7112 13.416ZM22.9992 20.448C23.6552 21.072 24.4552 21.384 25.3992 21.384C26.3592 21.384 27.1512 21.072 27.7752 20.448C28.3992 19.808 28.7112 18.992 28.7112 18C28.7112 17.008 28.3992 16.2 27.7752 15.576C27.1512 14.936 26.3592 14.616 25.3992 14.616C24.4392 14.616 23.6392 14.936 22.9992 15.576C22.3752 16.2 22.0632 17.008 22.0632 18C22.0632 18.992 22.3752 19.808 22.9992 20.448ZM47.9107 11.664C49.2867 11.664 50.3827 12.112 51.1987 13.008C52.0307 13.904 52.4467 15.104 52.4467 16.608V24H49.3507V16.824C49.3507 16.104 49.1747 15.544 48.8227 15.144C48.4707 14.744 47.9747 14.544 47.3347 14.544C46.6307 14.544 46.0787 14.776 45.6787 15.24C45.2947 15.704 45.1027 16.376 45.1027 17.256V24H42.0067V16.824C42.0067 16.104 41.8307 15.544 41.4787 15.144C41.1267 14.744 40.6307 14.544 39.9907 14.544C39.3027 14.544 38.7507 14.784 38.3347 15.264C37.9347 15.728 37.7347 16.392 37.7347 17.256V24H34.6387V12H37.7347V13.272C38.4547 12.2 39.5667 11.664 41.0707 11.664C42.5587 11.664 43.6467 12.24 44.3347 13.392C45.1187 12.24 46.3107 11.664 47.9107 11.664ZM64.1962 13.416V12H67.2922V24H64.1962V22.584C63.2682 23.752 61.9642 24.336 60.2842 24.336C58.6842 24.336 57.3082 23.728 56.1562 22.512C55.0202 21.28 54.4522 19.776 54.4522 18C54.4522 16.24 55.0202 14.744 56.1562 13.512C57.3082 12.28 58.6842 11.664 60.2842 11.664C61.9642 11.664 63.2682 12.248 64.1962 13.416ZM58.4842 20.448C59.1082 21.072 59.9002 21.384 60.8602 21.384C61.8202 21.384 62.6122 21.072 63.2362 20.448C63.8762 19.808 64.1962 18.992 64.1962 18C64.1962 17.008 63.8762 16.2 63.2362 15.576C62.6122 14.936 61.8202 14.616 60.8602 14.616C59.9002 14.616 59.1082 14.936 58.4842 15.576C57.8602 16.2 57.5482 17.008 57.5482 18C57.5482 18.992 57.8602 19.808 58.4842 20.448ZM73.1956 12V14.064C73.4676 13.312 73.9316 12.744 74.5876 12.36C75.2436 11.96 75.9956 11.76 76.8436 11.76V15.216C75.8996 15.088 75.0516 15.28 74.2996 15.792C73.5636 16.288 73.1956 17.112 73.1956 18.264V24H70.0996V12H73.1956ZM85.8464 12V14.976H83.1344V19.968C83.1344 20.384 83.2384 20.688 83.4464 20.88C83.6544 21.072 83.9584 21.184 84.3584 21.216C84.7584 21.232 85.2544 21.224 85.8464 21.192V24C83.7504 24.24 82.2544 24.048 81.3584 23.424C80.4784 22.784 80.0384 21.632 80.0384 19.968V14.976H77.9504V12H80.0384V9.576L83.1344 8.64V12H85.8464Z" fill="black"/>
</svg>
